# xmcd CD database file
#
# Track frame offsets:
#	150
#	17982
#	37888
#	53368
#	79350
#	112685
#	137923
#	170262
#	184945
#	194429
#	211496
#
# Disc length: 3059 seconds
#
# Revision: 0
# Processed by: cddbd v1.5.1PL0 Copyright (c) Steve Scherf et al.
# Submitted via: CDex 1.51
#
DISCID=8f0bf10b
DTITLE=Kristine Sa - Rebirth
DYEAR=2004
DGENRE=Rhythmic Soul
TTITLE0=Take Me Somewhere
TTITLE1=Consequence
TTITLE2=Just Drive
TTITLE3=Take Me Somewhere (Remix)
TTITLE4=A Dose Of You (Remix)
TTITLE5=Gone By Fall (Remix)
TTITLE6=The Arms Of Paradise (Remix)
TTITLE7=A Dose Of You (Acoustic)
TTITLE8=Beauty To Me
TTITLE9=Happy
TTITLE10=The Ocean's Sky
EXTD=YEAR: 2004
EXTT0=
EXTT1=
EXTT2=
EXTT3=
EXTT4=
EXTT5=
EXTT6=
EXTT7=
EXTT8=
EXTT9=
EXTT10=
PLAYORDER=
